<svg id="visual" viewBox="0 0 900 600" width="900" height="600" xmlns="http://www.w3.org/2000/svg" xmlns:xlink="http://www.w3.org/1999/xlink" version="1.1"><rect x="0" y="0" width="900" height="600" fill="#001b30"></rect><path d="M0 373L21.5 378.7C43 384.3 86 395.7 128.8 406.5C171.7 417.3 214.3 427.7 257.2 420.2C300 412.7 343 387.3 385.8 378.3C428.7 369.3 471.3 376.7 514.2 382.2C557 387.7 600 391.3 642.8 385.7C685.7 380 728.3 365 771.2 358.8C814 352.7 857 355.3 878.5 356.7L900 358L900 601L878.5 601C857 601 814 601 771.2 601C728.3 601 685.7 601 642.8 601C600 601 557 601 514.2 601C471.3 601 428.7 601 385.8 601C343 601 300 601 257.2 601C214.3 601 171.7 601 128.8 601C86 601 43 601 21.5 601L0 601Z" fill="#fa7268"></path><path d="M0 415L21.5 423.7C43 432.3 86 449.7 128.8 456.3C171.7 463 214.3 459 257.2 457C300 455 343 455 385.8 457.2C428.7 459.3 471.3 463.7 514.2 454.3C557 445 600 422 642.8 419.8C685.7 417.7 728.3 436.3 771.2 442C814 447.7 857 440.3 878.5 436.7L900 433L900 601L878.5 601C857 601 814 601 771.2 601C728.3 601 685.7 601 642.8 601C600 601 557 601 514.2 601C471.3 601 428.7 601 385.8 601C343 601 300 601 257.2 601C214.3 601 171.7 601 128.8 601C86 601 43 601 21.5 601L0 601Z" fill="#ef5f67"></path><path d="M0 447L21.5 457.2C43 467.3 86 487.7 128.8 486C171.7 484.3 214.3 460.7 257.2 457C300 453.3 343 469.7 385.8 479.2C428.7 488.7 471.3 491.3 514.2 487.5C557 483.7 600 473.3 642.8 466.2C685.7 459 728.3 455 771.2 460.5C814 466 857 481 878.5 488.5L900 496L900 601L878.5 601C857 601 814 601 771.2 601C728.3 601 685.7 601 642.8 601C600 601 557 601 514.2 601C471.3 601 428.7 601 385.8 601C343 601 300 601 257.2 601C214.3 601 171.7 601 128.8 601C86 601 43 601 21.5 601L0 601Z" fill="#e34c67"></path><path d="M0 484L21.5 493.5C43 503 86 522 128.8 523.7C171.7 525.3 214.3 509.7 257.2 507C300 504.3 343 514.7 385.8 513.3C428.7 512 471.3 499 514.2 492.2C557 485.3 600 484.7 642.8 489.8C685.7 495 728.3 506 771.2 512C814 518 857 519 878.5 519.5L900 520L900 601L878.5 601C857 601 814 601 771.2 601C728.3 601 685.7 601 642.8 601C600 601 557 601 514.2 601C471.3 601 428.7 601 385.8 601C343 601 300 601 257.2 601C214.3 601 171.7 601 128.8 601C86 601 43 601 21.5 601L0 601Z" fill="#d53867"></path><path d="M0 538L21.5 540.7C43 543.3 86 548.7 128.8 548.3C171.7 548 214.3 542 257.2 545.2C300 548.3 343 560.7 385.8 566.7C428.7 572.7 471.3 572.3 514.2 571.5C557 570.7 600 569.3 642.8 568C685.7 566.7 728.3 565.3 771.2 561.7C814 558 857 552 878.5 549L900 546L900 601L878.5 601C857 601 814 601 771.2 601C728.3 601 685.7 601 642.8 601C600 601 557 601 514.2 601C471.3 601 428.7 601 385.8 601C343 601 300 601 257.2 601C214.3 601 171.7 601 128.8 601C86 601 43 601 21.5 601L0 601Z" fill="#c62368"></path></svg>